#N canvas 0 0 640 667 10;
#X obj 91 629 dac~;
#X obj 90 603 *~ 0.2;
#X obj 466 352 vsl 15 64 0 0.3 0 0 empty empty amp 0 -8 1 8 -262144
-258699 -1 0 1;
#X obj 421 122 vsl 15 64 0 2000 0 0 empty empty filter_freq 0 -8 1
8 -262144 -258699 -1 0 1;
#X obj 89 443 bp~ 100 3;
#X obj 89 469 hip~ 60;
#N canvas 0 0 450 300 envelope 0;
#X obj 175 243 line;
#X msg 194 219 1 \$1;
#X msg 150 218 0 \$1;
#X obj 150 146 t b b;
#X obj 175 267 outlet;
#X obj 187 46 inlet attack;
#X obj 289 45 inlet decay;
#X obj 77 46 inlet trigger;
#X obj 187 87 t f f;
#X obj 150 196 f 50;
#X obj 194 197 f 50;
#X text 235 199 <-- default values 50 ms;
#X text 236 88 <-- set floats nicely;
#X obj 150 173 del 50;
#X text 151 9 envelope subpatch;
#X connect 0 0 4 0;
#X connect 1 0 0 0;
#X connect 2 0 0 0;
#X connect 3 0 13 0;
#X connect 3 1 10 0;
#X connect 5 0 8 0;
#X connect 6 0 9 1;
#X connect 7 0 3 0;
#X connect 8 0 13 1;
#X connect 8 1 10 1;
#X connect 9 0 2 0;
#X connect 10 0 1 0;
#X connect 13 0 9 0;
#X restore 220 286 pd envelope;
#X obj 190 128 bng 15 130 50 0 empty empty fire 0 -6 0 8 -262144 -258699
-1;
#X obj 248 122 vsl 15 64 0 2000 0 1 empty empty attack 0 -8 1 8 -262144
-258699 -1 800 1;
#X obj 306 122 vsl 15 64 0 2000 0 1 empty empty decay 0 -8 1 8 -262144
-258699 -1 2300 1;
#X floatatom 248 195 5 0 0 0 - - -;
#X floatatom 306 195 5 0 0 0 - - -;
#X floatatom 421 195 5 0 0 0 - - -;
#X floatatom 466 425 5 0 0 0 - - -;
#X obj 220 331 * 3000;
#X obj 353 122 vsl 15 64 0 3000 0 0 empty empty filter_range 0 -8 1
8 -262144 -258699 -1 0 1;
#X floatatom 353 195 5 0 0 0 - - -;
#N canvas 0 0 450 300 fatoscillator 0;
#X obj 113 206 +~;
#X obj 61 165 -~ 0.5;
#X obj 147 164 -~ 0.5;
#X obj 60 8 inlet pitch;
#X obj 146 108 +;
#X obj 60 109 -;
#X obj 149 7 inlet fatness;
#X obj 149 31 * 5;
#X obj 112 238 outlet~;
#X obj 60 137 phasor~ 55;
#X obj 146 136 phasor~ 55;
#X obj 149 53 t b b f f;
#X connect 0 0 8 0;
#X connect 1 0 0 0;
#X connect 2 0 0 1;
#X connect 3 0 5 0;
#X connect 3 0 4 0;
#X connect 4 0 10 0;
#X connect 5 0 9 0;
#X connect 6 0 7 0;
#X connect 7 0 11 0;
#X connect 9 0 1 0;
#X connect 10 0 2 0;
#X connect 11 0 5 0;
#X connect 11 1 4 0;
#X connect 11 2 5 1;
#X connect 11 3 4 1;
#X restore 44 337 pd fatoscillator;
#X obj 142 122 vsl 15 64 0 1 0 0 empty empty fatness 0 -8 1 8 -262144
-258699 -1 0 1;
#X floatatom 151 195 5 0 0 0 - - -;
#X obj 35 125 vsl 15 64 22.5 440 0 0 empty empty pitch 0 -8 1 8 -262144
-258699 -1 0 1;
#X floatatom 43 197 5 0 0 0 - - -;
#X obj 379 286 t b f;
#X obj 328 286 t b f;
#X obj 220 360 + 20;
#X obj 502 122 vsl 15 64 0.5 6 0 0 empty empty filter_res 0 -8 1 8
-262144 -258699 -1 0 1;
#X floatatom 502 195 5 0 0 0 - - -;
#N canvas 0 0 450 300 envelope 0;
#X obj 175 243 line;
#X msg 194 219 1 \$1;
#X msg 150 218 0 \$1;
#X obj 150 146 t b b;
#X obj 175 267 outlet;
#X obj 187 46 inlet attack;
#X obj 289 45 inlet decay;
#X obj 77 46 inlet trigger;
#X obj 187 87 t f f;
#X obj 150 196 f 50;
#X obj 194 197 f 50;
#X text 235 199 <-- default values 50 ms;
#X text 236 88 <-- set floats nicely;
#X obj 150 173 del 50;
#X text 151 9 envelope subpatch;
#X connect 0 0 4 0;
#X connect 1 0 0 0;
#X connect 2 0 0 0;
#X connect 3 0 13 0;
#X connect 3 1 10 0;
#X connect 5 0 8 0;
#X connect 6 0 9 1;
#X connect 7 0 3 0;
#X connect 8 0 13 1;
#X connect 8 1 10 1;
#X connect 9 0 2 0;
#X connect 10 0 1 0;
#X connect 13 0 9 0;
#X restore 190 514 pd envelope;
#X obj 324 351 vsl 15 64 0 2000 0 1 empty empty amp-attack 0 -8 1 8
-262144 -258699 -1 100 1;
#X obj 400 352 vsl 15 64 0 2000 0 1 empty empty amp-decay 0 -8 1 8
-262144 -258699 -1 2500 1;
#X floatatom 324 424 5 0 0 0 - - -;
#X floatatom 400 425 5 0 0 0 - - -;
#X obj 90 566 *~;
#X obj 190 151 t b b;
#X text 167 9 Six simple synthesisers 109;
#X text 169 35 Interface construction I;
#X text 77 73 Everywhere we see a fader \, replace it with a named
local send and receive.;
#X obj 44 225 s \$0-oscf;
#X obj 44 246 r \$0-oscf;
#X obj 150 226 s \$0-oscfat;
#X obj 151 248 r \$0-oscfat;
#X obj 247 225 s \$0-fenva;
#X obj 247 247 r \$0-fenva;
#X obj 324 225 s \$0-fenvd;
#X obj 324 247 r \$0-fenvd;
#X obj 226 457 s \$0-aenva;
#X obj 226 479 r \$0-aenva;
#X obj 323 457 s \$0-aenvd;
#X obj 323 479 r \$0-aenvd;
#X obj 419 457 s \$0-amp;
#X obj 419 479 r \$0-amp;
#X obj 545 224 s \$0-fres;
#X obj 545 246 r \$0-fres;
#X obj 403 225 s \$0-frng;
#X obj 403 246 r \$0-frng;
#X obj 474 225 s \$0-frle;
#X obj 474 247 r \$0-frle;
#X connect 1 0 0 0;
#X connect 1 0 0 1;
#X connect 2 0 13 0;
#X connect 2 0 49 0;
#X connect 3 0 12 0;
#X connect 3 0 55 0;
#X connect 4 0 5 0;
#X connect 5 0 32 0;
#X connect 6 0 14 0;
#X connect 7 0 33 0;
#X connect 8 0 10 0;
#X connect 8 0 41 0;
#X connect 9 0 11 0;
#X connect 9 0 43 0;
#X connect 14 0 24 0;
#X connect 15 0 16 0;
#X connect 15 0 53 0;
#X connect 17 0 4 0;
#X connect 18 0 19 0;
#X connect 18 0 39 0;
#X connect 20 0 21 0;
#X connect 20 0 37 0;
#X connect 22 0 24 0;
#X connect 22 1 24 1;
#X connect 23 0 14 0;
#X connect 23 1 14 1;
#X connect 24 0 4 1;
#X connect 25 0 26 0;
#X connect 25 0 51 0;
#X connect 27 0 32 1;
#X connect 28 0 30 0;
#X connect 28 0 45 0;
#X connect 29 0 31 0;
#X connect 29 0 47 0;
#X connect 32 0 1 0;
#X connect 33 0 27 0;
#X connect 33 1 6 0;
#X connect 38 0 17 0;
#X connect 40 0 17 1;
#X connect 42 0 6 1;
#X connect 44 0 6 2;
#X connect 46 0 27 1;
#X connect 48 0 27 2;
#X connect 50 0 1 1;
#X connect 52 0 4 2;
#X connect 54 0 23 0;
#X connect 56 0 22 0;
