#N canvas 0 0 230 248 10;
#N canvas 0 0 373 523 6s3cos1 0;
#X obj 49 483 dac~;
#X obj 115 200 osc~;
#X obj 64 200 osc~;
#X obj 6 200 osc~;
#X obj 64 295 clip~ -1 1;
#X obj 48 380 cos~;
#X obj 49 355 +~;
#X obj 7 224 *~ 0.3;
#X obj 64 224 *~ 0.3;
#X obj 114 224 *~ 0.3;
#X obj 48 458 *~ 0.16;
#X obj 65 268 +~;
#X obj 96 268 * -1;
#X obj 49 329 +~;
#X obj 64 172 *;
#X obj 115 171 *;
#X obj 64 146 t b f;
#X obj 115 146 t b f;
#X obj 8 295 *~ 0.25;
#X obj 48 433 *~;
#X obj 153 342 vline~;
#X obj 152 367 *~;
#X obj 152 389 *~;
#X obj 47 406 hip~ 10;
#X msg 153 318 0 \$1;
#X msg 195 318 1 0;
#X obj 237 43 * 3000;
#X obj 153 295 f 100;
#X obj 153 267 t b b;
#X obj 37 15 inlet;
#X obj 87 15 inlet;
#X obj 137 15 inlet;
#X obj 187 15 inlet;
#X obj 237 15 inlet;
#X obj -13 15 inlet;
#X obj -13 46 mtof;
#X obj -13 70 t b f f f;
#X connect 1 0 9 0;
#X connect 2 0 8 0;
#X connect 3 0 7 0;
#X connect 4 0 13 1;
#X connect 5 0 23 0;
#X connect 6 0 5 0;
#X connect 7 0 11 0;
#X connect 7 0 18 0;
#X connect 8 0 11 0;
#X connect 9 0 11 0;
#X connect 10 0 0 0;
#X connect 10 0 0 1;
#X connect 11 0 4 0;
#X connect 12 0 4 1;
#X connect 13 0 6 0;
#X connect 14 0 2 0;
#X connect 15 0 1 0;
#X connect 16 0 14 0;
#X connect 16 1 14 1;
#X connect 17 0 15 0;
#X connect 17 1 15 1;
#X connect 18 0 13 0;
#X connect 19 0 10 0;
#X connect 20 0 21 0;
#X connect 20 0 21 1;
#X connect 21 0 22 0;
#X connect 21 0 22 1;
#X connect 22 0 19 1;
#X connect 23 0 19 0;
#X connect 24 0 20 0;
#X connect 25 0 20 0;
#X connect 26 0 27 1;
#X connect 27 0 24 0;
#X connect 28 0 27 0;
#X connect 28 1 25 0;
#X connect 29 0 16 0;
#X connect 30 0 17 0;
#X connect 31 0 4 2;
#X connect 31 0 12 0;
#X connect 32 0 6 1;
#X connect 33 0 26 0;
#X connect 34 0 35 0;
#X connect 35 0 36 0;
#X connect 36 0 28 0;
#X connect 36 1 3 0;
#X connect 36 2 14 0;
#X connect 36 3 15 0;
#X restore 29 223 pd 6s3cos1;
#X obj 50 162 vsl 10 40 1 4 0 1 empty empty fO1 0 -8 1 8 -260818 -1
-1 2600 1;
#X obj 80 162 vsl 10 40 1 4 0 1 empty empty fO2 0 -8 1 8 -260818 -1
-1 1300 1;
#X obj 137 161 vsl 10 40 0 0.25 0 1 empty empty shape 0 -8 1 8 -260818
-1 -1 1700 1;
#X obj 110 162 vsl 10 40 0 1 0 1 empty empty clip 0 -8 1 8 -260818
-1 -1 900 1;
#X obj 171 161 vsl 10 40 0 1 0 1 empty empty decay 0 -8 1 8 -260818
-1 -1 1600 1;
#N canvas 0 0 450 300 random 0;
#X obj 55 101 metro 100;
#X obj 55 214 outlet;
#X obj 81 46 loadbang;
#X msg 81 69 1;
#X obj 32 46 inlet;
#X obj 55 125 random 12;
#X obj 55 153 * 3;
#X obj 55 188 + 36;
#X obj 204 47 inlet;
#X obj 154 46 inlet;
#X obj 204 71 int;
#X connect 0 0 5 0;
#X connect 2 0 3 0;
#X connect 3 0 0 0;
#X connect 4 0 0 0;
#X connect 5 0 6 0;
#X connect 6 0 7 0;
#X connect 7 0 1 0;
#X connect 8 0 10 0;
#X connect 9 0 0 1;
#X connect 10 0 7 1;
#X restore 29 95 pd random midi notes;
#X obj 29 73 tgl 15 1 empty empty on-off 0 -6 1 8 -260818 -1 -1 1 1
;
#X obj 164 46 vsl 10 40 32 96 0 1 empty empty root 0 -8 1 8 -260818
-1 -1 1000 1;
#X obj 96 45 vsl 10 40 1000 100 0 1 empty empty speed 0 -8 1 8 -260818
-1 -1 3200 1;
#X obj 47 128 nbx 3 14 0 127 0 0 empty empty note 0 -6 1 10 -260818
-1 -1 54 256;
#X text 62 3 Test patch;
#X connect 1 0 0 1;
#X connect 2 0 0 2;
#X connect 3 0 0 4;
#X connect 4 0 0 3;
#X connect 5 0 0 5;
#X connect 6 0 0 0;
#X connect 6 0 10 0;
#X connect 7 0 6 0;
#X connect 8 0 6 2;
#X connect 9 0 6 1;
