#N canvas 0 0 527 529 10;
#X obj 109 499 dac~;
#X obj 175 216 osc~;
#X obj 124 216 osc~;
#X obj 66 216 osc~;
#X obj 124 311 clip~ -1 1;
#X obj 108 396 cos~;
#X obj 109 371 +~;
#X obj 66 102 vsl 10 40 0 1000 0 0 empty empty f1 0 -8 1 8 -260818
-1 -1 0 1;
#X obj 124 102 vsl 10 40 1 4 0 0 empty empty fO1 0 -8 1 8 -260818 -1
-1 0 1;
#X obj 175 102 vsl 10 40 1 4 0 0 empty empty fO2 0 -8 1 8 -260818 -1
-1 0 1;
#X obj 67 240 *~ 0.3;
#X obj 124 240 *~ 0.3;
#X obj 174 240 *~ 0.3;
#X obj 256 102 vsl 10 40 0 0.25 0 0 empty empty shape 0 -8 1 8 -260818
-1 -1 0 1;
#X obj 108 474 *~ 0.16;
#X obj 125 284 +~;
#X obj 156 284 * -1;
#X obj 216 102 vsl 10 40 0 1 0 0 empty empty clip 0 -8 1 8 -260818
-1 -1 0 1;
#X obj 109 345 +~;
#X obj 124 188 *;
#X obj 175 187 *;
#X obj 124 162 t b f;
#X obj 175 162 t b f;
#X obj 68 311 *~ 0.25;
#X obj 108 449 *~;
#X obj 246 337 vline~;
#X obj 245 362 *~;
#X obj 245 384 *~;
#X obj 107 422 hip~ 10;
#X msg 246 313 0 \$1;
#X msg 288 313 1 0;
#X obj 246 210 bng 15 90 50 0 empty empty play_note 0 -6 1 8 -260818
-262144 -1;
#X obj 299 102 vsl 10 40 0 1 0 0 empty empty decay 0 -8 1 8 -260818
-1 -1 0 1;
#X obj 299 160 * 3000;
#X obj 246 290 f 100;
#X obj 246 262 t b b;
#X text 293 376 <-- 4th power fast envelope;
#X text 324 314 <-- fixed fast attack;
#X text 131 34 Basic AM synthesiser with envelope;
#X text 287 262 <- send the attck part first;
#X connect 1 0 12 0;
#X connect 2 0 11 0;
#X connect 3 0 10 0;
#X connect 4 0 18 1;
#X connect 5 0 28 0;
#X connect 6 0 5 0;
#X connect 7 0 3 0;
#X connect 7 0 19 0;
#X connect 7 0 20 0;
#X connect 8 0 21 0;
#X connect 9 0 22 0;
#X connect 10 0 15 0;
#X connect 10 0 23 0;
#X connect 11 0 15 0;
#X connect 12 0 15 0;
#X connect 13 0 6 1;
#X connect 14 0 0 0;
#X connect 14 0 0 1;
#X connect 15 0 4 0;
#X connect 16 0 4 1;
#X connect 17 0 16 0;
#X connect 17 0 4 2;
#X connect 18 0 6 0;
#X connect 19 0 2 0;
#X connect 20 0 1 0;
#X connect 21 0 19 0;
#X connect 21 1 19 1;
#X connect 22 0 20 0;
#X connect 22 1 20 1;
#X connect 23 0 18 0;
#X connect 24 0 14 0;
#X connect 25 0 26 0;
#X connect 25 0 26 1;
#X connect 26 0 27 0;
#X connect 26 0 27 1;
#X connect 27 0 24 1;
#X connect 28 0 24 0;
#X connect 29 0 25 0;
#X connect 30 0 25 0;
#X connect 31 0 35 0;
#X connect 32 0 33 0;
#X connect 33 0 34 1;
#X connect 34 0 29 0;
#X connect 35 0 34 0;
#X connect 35 1 30 0;
