#N canvas 0 0 584 616 10;
#X obj 54 592 dac~;
#X obj 53 566 *~ 0.2;
#X obj 332 382 vsl 15 64 0 0.3 0 0 empty empty amp 0 -8 1 8 -262144
-258699 -1 0 1;
#X obj 393 153 vsl 15 64 0 2000 0 0 empty empty filter_freq 0 -8 1
8 -262144 -258699 -1 0 1;
#X obj 52 406 bp~ 100 3;
#X obj 52 432 hip~ 60;
#N canvas 0 0 450 300 envelope 0;
#X obj 175 243 line;
#X msg 194 219 1 \$1;
#X msg 150 218 0 \$1;
#X obj 150 146 t b b;
#X obj 175 267 outlet;
#X obj 187 46 inlet attack;
#X obj 289 45 inlet decay;
#X obj 77 46 inlet trigger;
#X obj 187 87 t f f;
#X obj 150 196 f 50;
#X obj 194 197 f 50;
#X text 235 199 <-- default values 50 ms;
#X text 236 88 <-- set floats nicely;
#X obj 150 173 del 50;
#X text 151 9 envelope subpatch;
#X connect 0 0 4 0;
#X connect 1 0 0 0;
#X connect 2 0 0 0;
#X connect 3 0 13 0;
#X connect 3 1 10 0;
#X connect 5 0 8 0;
#X connect 6 0 9 1;
#X connect 7 0 3 0;
#X connect 8 0 13 1;
#X connect 8 1 10 1;
#X connect 9 0 2 0;
#X connect 10 0 1 0;
#X connect 13 0 9 0;
#X restore 183 249 pd envelope;
#X obj 153 91 bng 15 130 50 0 empty empty fire 0 -6 0 8 -262144 -258699
-1;
#X obj 220 153 vsl 15 64 0 2000 0 1 empty empty attack 0 -8 1 8 -262144
-258699 -1 800 1;
#X obj 278 153 vsl 15 64 0 2000 0 1 empty empty decay 0 -8 1 8 -262144
-258699 -1 2300 1;
#X floatatom 220 226 5 0 0 0 - - -;
#X floatatom 278 226 5 0 0 0 - - -;
#X floatatom 393 226 5 0 0 0 - - -;
#X floatatom 332 455 5 0 0 0 - - -;
#X obj 183 294 * 3000;
#X obj 325 153 vsl 15 64 0 3000 0 0 empty empty filter_range 0 -8 1
8 -262144 -258699 -1 0 1;
#X floatatom 325 226 5 0 0 0 - - -;
#N canvas 0 0 450 300 fatoscillator 0;
#X obj 113 206 +~;
#X obj 61 165 -~ 0.5;
#X obj 147 164 -~ 0.5;
#X obj 60 8 inlet pitch;
#X obj 146 108 +;
#X obj 60 109 -;
#X obj 149 7 inlet fatness;
#X obj 149 31 * 5;
#X obj 112 238 outlet~;
#X obj 60 137 phasor~ 55;
#X obj 146 136 phasor~ 55;
#X obj 149 53 t b b f f;
#X connect 0 0 8 0;
#X connect 1 0 0 0;
#X connect 2 0 0 1;
#X connect 3 0 5 0;
#X connect 3 0 4 0;
#X connect 4 0 10 0;
#X connect 5 0 9 0;
#X connect 6 0 7 0;
#X connect 7 0 11 0;
#X connect 9 0 1 0;
#X connect 10 0 2 0;
#X connect 11 0 5 0;
#X connect 11 1 4 0;
#X connect 11 2 5 1;
#X connect 11 3 4 1;
#X restore 7 300 pd fatoscillator;
#X obj 114 153 vsl 15 64 0 1 0 0 empty empty fatness 0 -8 1 8 -262144
-258699 -1 2400 1;
#X floatatom 123 226 5 0 0 0 - - -;
#X obj 7 156 vsl 15 64 22.5 440 0 1 empty empty pitch 0 -8 1 8 -262144
-258699 -1 2300 1;
#X floatatom 15 228 5 0 0 0 - - -;
#X obj 342 249 t b f;
#X obj 291 249 t b f;
#X obj 183 323 + 20;
#X obj 474 153 vsl 15 64 0.5 6 0 0 empty empty filter_res 0 -8 1 8
-262144 -258699 -1 0 1;
#X floatatom 474 226 5 0 0 0 - - -;
#N canvas 0 0 450 300 envelope 0;
#X obj 175 243 line;
#X msg 194 219 1 \$1;
#X msg 150 218 0 \$1;
#X obj 150 146 t b b;
#X obj 175 267 outlet;
#X obj 187 46 inlet attack;
#X obj 289 45 inlet decay;
#X obj 77 46 inlet trigger;
#X obj 187 87 t f f;
#X obj 150 196 f 50;
#X obj 194 197 f 50;
#X text 235 199 <-- default values 50 ms;
#X text 236 88 <-- set floats nicely;
#X obj 150 173 del 50;
#X text 151 9 envelope subpatch;
#X connect 0 0 4 0;
#X connect 1 0 0 0;
#X connect 2 0 0 0;
#X connect 3 0 13 0;
#X connect 3 1 10 0;
#X connect 5 0 8 0;
#X connect 6 0 9 1;
#X connect 7 0 3 0;
#X connect 8 0 13 1;
#X connect 8 1 10 1;
#X connect 9 0 2 0;
#X connect 10 0 1 0;
#X connect 13 0 9 0;
#X restore 153 477 pd envelope;
#X obj 190 381 vsl 15 64 0 2000 0 1 empty empty amp-attack 0 -8 1 8
-262144 -258699 -1 100 1;
#X obj 266 382 vsl 15 64 0 2000 0 1 empty empty amp-decay 0 -8 1 8
-262144 -258699 -1 2500 1;
#X floatatom 190 454 5 0 0 0 - - -;
#X floatatom 266 455 5 0 0 0 - - -;
#X obj 53 529 *~;
#X text 123 33 Adding an amplitude envelope generator.;
#X text 205 84 Now the patch is getting messy \, we will separate the
interface in the next section.;
#X obj 153 114 t b b;
#X text 167 9 Six simple synthesisers 108;
#X connect 1 0 0 0;
#X connect 1 0 0 1;
#X connect 2 0 1 1;
#X connect 2 0 13 0;
#X connect 3 0 12 0;
#X connect 3 0 22 0;
#X connect 4 0 5 0;
#X connect 5 0 32 0;
#X connect 6 0 14 0;
#X connect 7 0 35 0;
#X connect 8 0 10 0;
#X connect 8 0 6 1;
#X connect 9 0 11 0;
#X connect 9 0 6 2;
#X connect 14 0 24 0;
#X connect 15 0 16 0;
#X connect 15 0 23 0;
#X connect 17 0 4 0;
#X connect 18 0 19 0;
#X connect 18 0 17 1;
#X connect 20 0 21 0;
#X connect 20 0 17 0;
#X connect 22 0 24 0;
#X connect 22 1 24 1;
#X connect 23 0 14 0;
#X connect 23 1 14 1;
#X connect 24 0 4 1;
#X connect 25 0 26 0;
#X connect 25 0 4 2;
#X connect 27 0 32 1;
#X connect 28 0 30 0;
#X connect 28 0 27 1;
#X connect 29 0 31 0;
#X connect 29 0 27 2;
#X connect 32 0 1 0;
#X connect 35 0 27 0;
#X connect 35 1 6 0;
