#N canvas 0 0 460 407 10;
#X obj 142 379 dac~;
#X obj 207 153 osc~;
#X obj 156 153 osc~;
#X obj 105 153 osc~;
#X obj 156 248 clip~ -1 1;
#X obj 140 333 cos~;
#X obj 141 308 +~;
#X obj 105 49 vsl 10 40 0 1000 0 0 empty empty f1 0 -8 1 8 -260818
-1 -1 0 1;
#X obj 156 49 vsl 10 40 1 4 0 0 empty empty fO1 0 -8 1 8 -260818 -1
-1 0 1;
#X obj 207 49 vsl 10 40 1 4 0 0 empty empty fO2 0 -8 1 8 -260818 -1
-1 0 1;
#X obj 106 177 *~ 0.3;
#X obj 156 177 *~ 0.3;
#X obj 206 177 *~ 0.3;
#X obj 288 49 vsl 10 40 0 0.25 0 0 empty empty shape 0 -8 1 8 -260818
-1 -1 0 1;
#X obj 141 354 *~ 0.16;
#X obj 157 221 +~;
#X obj 188 221 * -1;
#X obj 248 49 vsl 10 40 0 1 0 0 empty empty clip 0 -8 1 8 -260818 -1
-1 0 1;
#X obj 141 282 +~;
#X obj 156 125 *;
#X obj 207 124 *;
#X obj 156 99 t b f;
#X obj 207 99 t b f;
#X obj 107 248 *~ 0.25;
#X text 110 6 Relative to fundamental;
#X connect 1 0 12 0;
#X connect 2 0 11 0;
#X connect 3 0 10 0;
#X connect 4 0 18 1;
#X connect 5 0 14 0;
#X connect 6 0 5 0;
#X connect 7 0 3 0;
#X connect 7 0 19 0;
#X connect 7 0 20 0;
#X connect 8 0 21 0;
#X connect 9 0 22 0;
#X connect 10 0 15 0;
#X connect 10 0 23 0;
#X connect 11 0 15 0;
#X connect 12 0 15 0;
#X connect 13 0 6 1;
#X connect 14 0 0 0;
#X connect 14 0 0 1;
#X connect 15 0 4 0;
#X connect 16 0 4 1;
#X connect 17 0 16 0;
#X connect 17 0 4 2;
#X connect 18 0 6 0;
#X connect 19 0 2 0;
#X connect 20 0 1 0;
#X connect 21 0 19 0;
#X connect 21 1 19 1;
#X connect 22 0 20 0;
#X connect 22 1 20 1;
#X connect 23 0 18 0;
