#N canvas 169 64 450 478 12;
#X obj 90 165 phasor~ 220;
#X obj 90 200 -~ 0.5;
#X obj 90 235 +~;
#X obj 90 270 bp~ 660 3;
#X obj 90 305 *~ 0.2;
#X obj 90 340 dac~;
#X obj 200 165 phasor~ 220;
#X obj 200 200 -~ 0.5;
#X obj 317 38 vsl 20 170 100 2000 0 0 empty empty filter_freq 0 -9 0 12 #ffffff #ff0400 #000000 0 1;
#X obj 407 38 vsl 20 170 0 0.3 0 0 empty empty amp 0 -9 0 12 #fcfcfc #ff0400 #000000 0 1;
#X obj 357 268 vsl 20 170 0 3 0 0 empty empty filter_q 0 -9 0 12 #ffffff #ff0400 #000000 0 1;
#X connect 0 0 1 0;
#X connect 1 0 2 0;
#X connect 2 0 3 0;
#X connect 3 0 4 0;
#X connect 4 0 5 0;
#X connect 4 0 5 1;
#X connect 6 0 7 0;
#X connect 7 0 2 1;
#X connect 8 0 3 1;
#X connect 9 0 4 1;
#X connect 10 0 3 2;
