#N canvas 1109 96 401 685 10;
#X obj 17 149 metro 300;
#X obj 17 173 random 24;
#X obj 17 196 + 48;
#X floatatom 56 225 5 0 0 0 - - - 0;
#X obj 17 34 tgl 15 1 empty empty empty 0 -6 0 8 #fcfcfc #000000 #000000 1 1;
#X obj 21 294 osc~;
#X obj 21 430 dac~;
#X text 45 13 random note;
#X text 96 198 add 48 as lower limit;
#X text 96 150 a timebase generates bang messages;
#X text 96 222 random range is 48 to 71;
#X text 96 174 random number zero to 23;
#X obj 41 254 mtof;
#X floatatom 86 275 5 0 0 0 - - - 0;
#X obj 20 347 *~ 0.25;
#X obj 169 13 loadbang;
#X obj 222 71 r rate;
#X obj 217 314 s rate;
#X floatatom 236 265 5 0 0 0 - - - 0;
#X connect 0 0 1 0;
#X connect 1 0 2 0;
#X connect 2 0 3 0;
#X connect 2 0 12 0;
#X connect 4 0 0 0;
#X connect 5 0 14 0;
#X connect 12 0 13 0;
#X connect 12 0 5 0;
#X connect 14 0 6 0;
#X connect 14 0 6 1;
#X connect 15 0 0 0;
#X connect 16 0 0 1;
#X connect 18 0 17 0;
