#N canvas 0 0 399 382 10;
#N canvas 0 0 450 300 random 0;
#X obj 55 101 metro 100;
#X obj 55 214 outlet;
#X obj 81 46 loadbang;
#X msg 81 69 1;
#X obj 32 46 inlet;
#X obj 55 188 + 36;
#X obj 204 47 inlet;
#X obj 154 46 inlet;
#X obj 204 71 int;
#X obj 55 153 * 2;
#X obj 55 125 random 15;
#X connect 0 0 10 0;
#X connect 2 0 3 0;
#X connect 3 0 0 0;
#X connect 4 0 0 0;
#X connect 5 0 1 0;
#X connect 6 0 8 0;
#X connect 7 0 0 1;
#X connect 8 0 5 1;
#X connect 9 0 5 0;
#X connect 10 0 9 0;
#X restore 17 71 pd random midi notes;
#X obj 17 49 tgl 15 1 empty empty on-off 0 -6 1 8 -260818 -1 -1 1 1
;
#X obj 152 22 vsl 10 40 12 96 0 1 empty empty root 0 -8 1 8 -260818
-1 -1 1600 1;
#X obj 84 21 vsl 10 40 1000 100 0 1 empty empty speed 0 -8 1 8 -260818
-1 -1 3800 1;
#X obj 35 104 nbx 3 14 0 127 0 0 empty empty note 0 -6 1 10 -260818
-1 -1 66 256;
#N canvas 0 0 478 340 6s-3cos-synth 0;
#N canvas 0 0 375 753 6s3cos1 0;
#X obj 115 200 osc~;
#X obj 64 200 osc~;
#X obj 6 200 osc~;
#X obj 63 419 clip~ -1 1;
#X obj 47 504 cos~;
#X obj 48 479 +~;
#X obj 6 348 *~ 0.3;
#X obj 63 348 *~ 0.3;
#X obj 113 348 *~ 0.3;
#X obj 47 582 *~ 0.16;
#X obj 64 392 +~;
#X obj 95 392 * -1;
#X obj 48 453 +~;
#X obj 64 172 *;
#X obj 115 171 *;
#X obj 64 146 t b f;
#X obj 115 146 t b f;
#X obj 7 419 *~ 0.25;
#X obj 47 557 *~;
#X obj 195 220 vline~;
#X obj 194 245 *~;
#X obj 194 267 *~;
#X obj 46 530 hip~ 10;
#X msg 195 196 0 \$1;
#X msg 237 196 1 0;
#X obj 237 43 * 3000;
#X obj 195 173 f 100;
#X obj 195 145 t b b;
#X obj 37 15 inlet;
#X obj 87 15 inlet;
#X obj 137 15 inlet;
#X obj 187 15 inlet;
#X obj 237 15 inlet;
#X obj -13 15 inlet;
#X obj -13 46 mtof;
#X obj -13 70 t b f f f;
#X obj 63 322 *~;
#X obj 114 324 *~;
#X obj 164 268 *~;
#X obj 136 268 *~;
#X obj 136 242 sig~;
#X obj 295 14 inlet;
#X obj 48 607 outlet~;
#X connect 0 0 37 0;
#X connect 1 0 36 0;
#X connect 2 0 6 0;
#X connect 3 0 12 1;
#X connect 4 0 22 0;
#X connect 5 0 4 0;
#X connect 6 0 10 0;
#X connect 6 0 17 0;
#X connect 7 0 10 0;
#X connect 8 0 10 0;
#X connect 9 0 42 0;
#X connect 10 0 3 0;
#X connect 11 0 3 1;
#X connect 12 0 5 0;
#X connect 13 0 1 0;
#X connect 14 0 0 0;
#X connect 15 0 13 0;
#X connect 15 1 13 1;
#X connect 16 0 14 0;
#X connect 16 1 14 1;
#X connect 17 0 12 0;
#X connect 18 0 9 0;
#X connect 19 0 20 0;
#X connect 19 0 20 1;
#X connect 19 0 39 1;
#X connect 20 0 21 0;
#X connect 20 0 21 1;
#X connect 20 0 38 1;
#X connect 21 0 18 1;
#X connect 22 0 18 0;
#X connect 23 0 19 0;
#X connect 24 0 19 0;
#X connect 25 0 26 1;
#X connect 26 0 23 0;
#X connect 27 0 26 0;
#X connect 27 1 24 0;
#X connect 28 0 15 0;
#X connect 29 0 16 0;
#X connect 30 0 3 2;
#X connect 30 0 11 0;
#X connect 31 0 5 1;
#X connect 32 0 25 0;
#X connect 33 0 34 0;
#X connect 34 0 35 0;
#X connect 35 0 27 0;
#X connect 35 1 2 0;
#X connect 35 2 13 0;
#X connect 35 3 14 0;
#X connect 36 0 7 0;
#X connect 37 0 8 0;
#X connect 38 0 37 1;
#X connect 39 0 36 1;
#X connect 40 0 39 0;
#X connect 40 0 38 0;
#X connect 41 0 40 0;
#X restore 101 288 pd 6s3cos1;
#X obj 130 211 r \$0-foffset1-s;
#X obj 242 211 r \$0-foffset2-s;
#X obj 129 235 r \$0-clip-s;
#X obj 243 234 r \$0-shape-s;
#X obj 130 259 r \$0-decay-s;
#X obj 244 257 r \$0-mod-s;
#X obj 102 311 outlet~;
#X obj 101 185 inlet midi notes;
#X obj 100 100 cnv 15 200 80 empty empty 3cos 20 12 1 14 -62784 -24198
0;
#X obj 119 135 vsl 10 40 1 4 0 1 \$0-foffset1-s \$0-foffset1-r fO1
0 -8 1 8 -262144 -24198 -24198 1300 1;
#X obj 149 135 vsl 10 40 1 4 0 1 \$0-foffset2-s \$0-foffset2-r fO2
0 -8 1 8 -262144 -24198 -24198 1300 1;
#X obj 206 135 vsl 10 40 0 0.25 0 1 \$0-shape-s \$0-shape-r shape 0
-8 1 8 -262144 -24198 -24198 200 1;
#X obj 179 135 vsl 10 40 0 1 0 1 \$0-clip-s \$0-clip-r clip 0 -8 1
8 -262144 -24198 -24198 1100 1;
#X obj 240 135 vsl 10 40 0 1 0 1 \$0-decay-s \$0-decay-r decay 0 -8
1 8 -262144 -24198 -24198 500 1;
#X obj 274 135 vsl 10 40 0 1 0 1 \$0-mod-s \$0-mod-r mod 0 -8 1 8 -262144
-24198 -24198 3900 1;
#X connect 0 0 7 0;
#X connect 1 0 0 1;
#X connect 2 0 0 2;
#X connect 3 0 0 3;
#X connect 4 0 0 4;
#X connect 5 0 0 5;
#X connect 6 0 0 6;
#X connect 8 0 0 0;
#X coords 0 -1 1 1 200 80 1 100 100;
#X restore 17 142 pd 6s-3cos-synth;
#X obj 16 238 dac~;
#X connect 0 0 4 0;
#X connect 0 0 5 0;
#X connect 1 0 0 0;
#X connect 2 0 0 2;
#X connect 3 0 0 1;
#X connect 5 0 6 0;
#X connect 5 0 6 1;
