#N canvas 37 76 701 362 10;
#X obj 232 196 +~;
#X obj 231 221 *~ 0.1;
#X obj 231 247 dac~;
#X obj 180 149 phasor~ 110;
#X text 264 91 Six simple synthesisers 101;
#X obj 574 213 +~;
#X obj 573 238 *~ 0.1;
#X obj 573 264 dac~;
#X obj 522 172 -~ 0.5;
#X obj 608 172 -~ 0.5;
#X text 400 176 shift down -->;
#X text 16 149 two sawtooth waves -->;
#X text 17 195 add together ------------>;
#X text 19 245 not too loud ------------>;
#X obj 521 144 phasor~ 220;
#X obj 607 144 phasor~ 221;
#X obj 266 148 phasor~ 110;
#X connect 0 0 1 0;
#X connect 1 0 2 0;
#X connect 1 0 2 1;
#X connect 3 0 0 0;
#X connect 5 0 6 0;
#X connect 6 0 7 0;
#X connect 6 0 7 1;
#X connect 8 0 5 0;
#X connect 9 0 5 1;
#X connect 14 0 8 0;
#X connect 15 0 9 0;
#X connect 16 0 0 1;
