#N canvas 37 76 1086 474 10;
#X obj 232 196 +~;
#X obj 231 221 *~ 0.1;
#X obj 231 247 dac~;
#X obj 180 149 phasor~ 110;
#X text 281 46 Six simple synthesisers 101;
#X obj 567 246 +~;
#X obj 566 271 *~ 0.1;
#X obj 566 297 dac~;
#X obj 515 205 -~ 0.5;
#X obj 601 205 -~ 0.5;
#X text 400 176 shift down -->;
#X text 16 149 two sawtooth waves -->;
#X text 17 195 add together ------------>;
#X text 19 245 not too loud ------------>;
#X obj 514 177 phasor~ 220;
#X obj 600 177 phasor~ 221;
#X obj 266 148 phasor~ 110;
#X obj 201 52 r freq;
#X obj 353 271 s freq;
#X msg 336 213 180;
#X floatatom 372 136 5 0 0 0 - - - 0;
#X msg 384 208 110;
#X obj 442 86 * 2;
#X floatatom 422 140 5 0 0 0 - - - 0;
#X obj 517 120 + 1;
#X floatatom 610 120 5 0 0 0 - - - 0;
#X floatatom 303 180 5 0 0 0 - - - 0;
#X obj 827 200 +~;
#X obj 826 225 *~ 0.1;
#X obj 826 251 dac~;
#X obj 803 79 r alt;
#X obj 775 153 phasor~ 55;
#X obj 861 152 phasor~ 56;
#X obj 267 115 + 1;
#X obj 864 107 + 1;
#X msg 694 309 180;
#X msg 742 304 110;
#X floatatom 642 271 5 0 0 0 - - - 0;
#X obj 711 367 s alt;
#X obj 910 317 metro 100;
#X obj 910 379 f 0;
#X obj 996 417 s toC;
#X obj 998 350 + 1;
#X obj 957 204 r start;
#X obj 943 246 bng 18 250 50 0 empty empty empty 0 -9 0 10 #fcfcfc #000000 #000000;
#X obj 997 261 r rate;
#X msg 844 365 180;
#X floatatom 792 327 5 0 0 0 - - - 0;
#X obj 861 423 s rate;
#X floatatom 1018 318 5 0 0 0 - - - 0;
#X obj 933 437 print;
#X connect 0 0 1 0;
#X connect 1 0 2 0;
#X connect 1 0 2 1;
#X connect 3 0 0 0;
#X connect 5 0 6 0;
#X connect 6 0 7 0;
#X connect 6 0 7 1;
#X connect 8 0 5 0;
#X connect 9 0 5 1;
#X connect 14 0 8 0;
#X connect 15 0 9 0;
#X connect 16 0 0 1;
#X connect 17 0 3 0;
#X connect 17 0 20 0;
#X connect 17 0 22 0;
#X connect 17 0 33 0;
#X connect 19 0 18 0;
#X connect 21 0 18 0;
#X connect 22 0 23 0;
#X connect 22 0 14 0;
#X connect 22 0 24 0;
#X connect 24 0 25 0;
#X connect 24 0 15 0;
#X connect 26 0 18 0;
#X connect 27 0 28 0;
#X connect 28 0 29 0;
#X connect 28 0 29 1;
#X connect 30 0 31 0;
#X connect 30 0 34 0;
#X connect 31 0 27 0;
#X connect 32 0 27 1;
#X connect 33 0 16 0;
#X connect 34 0 32 0;
#X connect 35 0 38 0;
#X connect 36 0 38 0;
#X connect 37 0 38 0;
#X connect 39 0 40 0;
#X connect 40 0 41 0;
#X connect 40 0 42 0;
#X connect 40 0 50 0;
#X connect 42 0 40 1;
#X connect 43 0 44 0;
#X connect 44 0 39 0;
#X connect 45 0 39 1;
#X connect 45 0 49 0;
#X connect 46 0 48 0;
#X connect 47 0 48 0;
