#N canvas 591 83 495 651 10;
#X obj 171 557 dac~;
#X obj 68 332 f 0;
#X obj 141 332 + 1;
#X obj 227 119 bng 16 250 50 0 empty empty empty 0 -8 0 10 #fcfcfc #000000 #000000;
#X msg 302 291 440;
#X obj 319 419 r freq;
#X floatatom 96 124 5 0 127 0 - - - 0;
#X obj 96 168 s freq;
#X obj 113 379 s toC;
#X msg 384 291 220;
#X obj 319 456 mtof;
#X obj 68 279 metro 100;
#X msg 186 234 stop;
#X obj 309 196 delay 1000;
#X obj 279 254 delay 1000;
#X obj 96 145 / 1;
#X obj 227 80 r start;
#X obj 186 187 r end;
#X obj 42 168 s end;
#X obj 42 141 bng 16 250 50 0 empty empty empty 0 -8 0 10 #fcfcfc #000000 #000000;
#X obj 254 119 print;
#X obj 319 483 osc~;
#X obj 319 379 osc~;
#X obj 339 291 r alt;
#X obj 186 441 line~;
#X obj 171 520 *~;
#X obj 233 387 nbx 5 14 -1e+37 1e+37 0 0 empty empty empty 0 -8 0 10 #fcfcfc #000000 #000000 0 256;
#X msg 186 261 0;
#X obj 319 520 *~;
#X msg 227 353 0.125;
#X msg 265 291 880;
#X obj 186 412 pack 0 200;
#X obj 42 61 bng 16 250 50 0 empty empty empty 0 -8 0 10 #fcfcfc #000000 #000000;
#X obj 42 88 s start;
#X obj 319 557 dac~;
#X obj 140 229 print;
#X obj 358 456 print;
#X connect 1 0 2 0;
#X connect 1 0 8 0;
#X connect 2 0 1 1;
#X connect 3 0 11 0;
#X connect 3 0 30 0;
#X connect 3 0 13 0;
#X connect 3 0 29 0;
#X connect 4 0 22 0;
#X connect 5 0 10 0;
#X connect 5 0 36 0;
#X connect 6 0 15 0;
#X connect 9 0 22 0;
#X connect 10 0 21 0;
#X connect 11 0 1 0;
#X connect 12 0 11 0;
#X connect 12 0 27 0;
#X connect 13 0 9 0;
#X connect 13 0 14 0;
#X connect 14 0 4 0;
#X connect 15 0 7 0;
#X connect 16 0 3 0;
#X connect 16 0 20 0;
#X connect 17 0 12 0;
#X connect 17 0 35 0;
#X connect 19 0 18 0;
#X connect 21 0 28 0;
#X connect 22 0 25 0;
#X connect 23 0 22 0;
#X connect 24 0 25 1;
#X connect 24 0 28 1;
#X connect 25 0 0 0;
#X connect 25 0 0 1;
#X connect 26 0 31 1;
#X connect 27 0 31 0;
#X connect 28 0 34 0;
#X connect 28 0 34 1;
#X connect 29 0 31 0;
#X connect 30 0 22 0;
#X connect 31 0 24 0;
#X connect 32 0 33 0;
